<?xml version="1.0" encoding="utf-8"?>
<!-- Generator: Adobe Illustrator 21.1.0, SVG Export Plug-In . SVG Version: 6.00 Build 0)  -->
<svg version="1.1" id="Layer_1" xmlns="http://www.w3.org/2000/svg" xmlns:xlink="http://www.w3.org/1999/xlink" x="0px" y="0px"
	 viewBox="0 0 464 129.5" style="enable-background:new 0 0 464 129.5;" xml:space="preserve">
<style type="text/css">
	.st0{fill:#55565A;}
	.st1{fill:#D13239;}
	.st2{fill:#CAC8C8;}
</style>
<title>unidosus50th_logo</title>
<path class="st0" d="M229.5,34.9V9.1h15.9v25.6c0,5.8,3,8.3,7.2,8.3c4.2,0,7.2-2.3,7.2-7.9V9.1h15.9v25.4c0,16-9.3,22.2-23.2,22.2
	S229.5,50.4,229.5,34.9z"/>
<path class="st0" d="M276.8,48.8l8.3-9.9c4.7,3.6,10.4,5.5,16.4,5.5c2.8,0,4-0.7,4-2v-0.1c0-1.3-1.5-2.1-6.5-3.1
	c-10.5-2.1-19.7-5.1-19.7-15V24c0-8.9,6.9-15.8,19.8-15.8c9,0,15.7,2.1,21.1,6.4l-7.6,10.5c-4.1-2.9-9-4.5-14-4.6
	c-2.3,0-3.4,0.8-3.4,1.9v0.1c0,1.3,1.3,2.1,6.2,3c12,2.2,20,5.7,20,15.1v0.1c0,9.8-8.1,15.8-20.6,15.8
	C291.3,56.7,282.7,54,276.8,48.8z"/>
<path class="st1" d="M26.1,57.1c13.2,0,20.5-7.5,20.5-21.1V9.4h-9.6v26.9c0,7.6-3.9,11.9-10.8,11.9S15.5,43.8,15.5,36V9.4H5.9v26.9
	C5.9,49.7,13.1,57.1,26.1,57.1z"/>
<polygon class="st1" points="94.4,56.3 94.4,9.4 85,9.4 85,39.7 61.9,9.4 52.8,9.4 52.8,56.3 62.3,56.3 62.3,25 86.2,56.3 "/>
<rect x="103.2" y="9.4" class="st1" width="9.6" height="46.9"/>
<path class="st1" d="M186.9,47.5l-1.2,1.4C186.1,48.5,186.5,48,186.9,47.5z"/>
<path class="st1" d="M207,28.6c-8.4-2.1-10.7-3.2-10.7-6.7v-0.1c0-2.8,2.6-4.6,6.6-4.6c3.8,0,7.8,1.5,12.3,4.5l5-7.2
	c-4.9-3.8-11-5.8-17.2-5.7c-7.6,0-13.2,3.4-15.3,8.8c3.3,4.4,5.1,9.7,5.1,15.2v0.1c0,0.3,0,0.5,0,0.8c3,1.5,6.2,2.6,9.5,3.4
	c7.8,2,10,3.4,10,6.5v0.1c0,3.1-2.8,5-7.4,5c-4.9,0-9.5-1.8-14.2-5.6l-0.1,0.1c-1.2,2.7-2.8,5.2-4.9,7.3c5.3,4.4,12,6.7,18.9,6.7
	c10.6,0,17.1-5.5,17.1-14.4v-0.1C221.8,34.1,216.1,31,207,28.6z"/>
<path class="st1" d="M167,8.6c-4.6,0-9.2,1.2-13.2,3.5c2.9,1.6,5.3,3.8,7.3,6.5c1.8-0.7,3.8-1.1,5.7-1.1c8.4,0,14.9,6.8,14.9,15.5
	V33c0,8.8-6.4,15.3-14.8,15.3c-2,0-4-0.4-5.8-1.2l-0.5-0.2c-0.7-0.3-1.4-0.7-2.1-1.2c-0.9-0.6-1.6-1.3-2.4-2c-0.4-0.5-0.8-1-1.2-1.5
	c-0.1-0.2-0.4-0.6-0.5-0.8c-0.1-0.2-0.3-0.5-0.4-0.7c-0.2-0.4-0.3-0.6-0.4-0.8c-1.1-2.2-1.6-4.7-1.6-7.1v-0.1c0-1.8,0.3-3.5,0.8-5.2
	c-1.2-3.5-3.8-6.2-7.3-7.6c-2.4,3.9-3.7,8.3-3.7,12.9V33c0,4.6,1.3,9.1,3.7,13l0.2,0.2c0.9,1.3,1.9,2.5,3,3.7
	c0.2,0.2,0.5,0.5,0.7,0.7c4.7,4.3,10.9,6.6,17.3,6.5c14,0,25-10.7,25-24.3v-0.1C191.9,18.9,181.2,8.6,167,8.6z"/>
<path class="st1" d="M154.6,39.8c0.2,0.4,0.1,0.1,0.3,0.5c0.2,0.5,0.3,0.5,0.4,0.7c0.2,0.3,0.3,0.5,0.5,0.8c0.3,0.5,0.7,0.9,1.1,1.3
	c0.3,0.3,0.7,0.7,1.2,1.1c0.3,0.3,0.7,0.5,1,0.8c0.3,0.2,0.2,0.1,0.5,0.3c0.1,0,0.5,0.3,0.6,0.3c0.3,0.2,0.5,0.3,0.7,0.4
	c2.5-3.9,3.9-8.5,3.9-13.2v-0.1c0-13.5-10.5-23.3-25-23.3h-18.2v46.9h18.2c4.3-0.1,8.6-0.9,12.6-2.4c-1.5-1-2.9-2.1-4.2-3.4
	c-1.1-1.1-2.1-2.4-3-3.6c-1.7,0.6-3.6,0.9-5.4,0.8h-8.6V18h8.6c8.8,0,14.9,6.1,14.9,14.9V33C154.6,34.9,154.6,39,154.6,39.8z"/>
<polygon class="st0" points="443.2,19.6 444.7,21 437.4,32.8 449.8,32.8 458.1,19.4 442.9,4.3 426.5,22.1 410.4,22.1 407.4,32.7 
	431.1,32.7 "/>
<polygon class="st0" points="415.1,66.4 424.6,81.8 416.4,74.3 385.2,74.2 388.4,85 377.3,74.3 362,74.3 385.7,97.2 403.1,97.2 
	399.4,84.9 412.3,84.9 425.2,96.7 439.6,85.8 427.5,66.4 "/>
<path class="st2" d="M406.6,36c0.9,2.1,1.5,4.3,1.8,6.6H444l4-6.6H406.6z"/>
<path class="st2" d="M406.8,56.3c-1,2.4-2.3,4.6-3.9,6.6H430l5.2-6.6H406.8z"/>
<path class="st2" d="M408.7,46.1c0,0.1,0,0.2,0,0.3c0,2.2-0.3,4.3-0.8,6.4h29.9l4.1-6.7L408.7,46.1z"/>
<path class="st1" d="M382.3,21.1c-5.5,0-10.8,1.8-15.2,5.1c3.4,1.7,6.4,4.1,8.7,7c7.3-3.6,16.1-0.6,19.7,6.6
	c3.6,7.3,0.6,16.1-6.6,19.7c-7.3,3.6-16.1,0.6-19.7-6.6c-1.3-2.6-1.8-5.6-1.4-8.5c-1.5-3.8-4.8-6.7-8.8-7.7
	c-5.3,12.9,0.8,27.7,13.6,33c12.9,5.3,27.7-0.8,33-13.6c5.3-12.9-0.8-27.7-13.6-33C388.9,21.8,385.6,21.1,382.3,21.1L382.3,21.1z"/>
<path class="st1" d="M410.8,19.3l3-10.6h-74l-7.6,35l10.7,0c3-7.1,11.1-10.4,18.2-7.4c5.8,2.5,9.3,8.6,8.3,14.9
	c1.5,3.8,4.6,6.8,8.5,8.1c5.6-12.3,0.2-26.8-12.1-32.4c-6-2.8-12.9-3-19.1-0.5l1.5-7H410.8z"/>
<path class="st1" d="M361.1,61.9c-7.1,2.9-15.2-0.5-18.1-7.6c0,0,0,0,0,0h-10.7c0.1,1.4,0.4,2.7,0.9,4c5.1,12.5,19.4,18.5,31.9,13.3
	c1.6-0.6,3-1.4,4.4-2.4C366.2,67.5,363.4,65,361.1,61.9z"/>
<path class="st2" d="M232.1,64.6l-2,0.4l-0.7-3l3.6-1h3v12.1h-3.9L232.1,64.6z"/>
<path class="st2" d="M237.4,72l1.7-2.6c0.7,0.6,1.6,0.9,2.5,0.9c1.3,0,2-0.8,2.1-2.3c-0.7,0.7-1.7,1.1-2.7,1.1
	c-2,0.1-3.7-1.5-3.8-3.5c0-0.1,0-0.1,0-0.2v0c0-2.9,2.2-4.5,5-4.5c1.5-0.1,2.9,0.4,3.9,1.5c1,1.2,1.6,2.8,1.5,4.4v0
	c0,3.9-2.1,6.6-5.9,6.6C240.3,73.4,238.7,72.9,237.4,72z M243.8,65.2L243.8,65.2c0-0.8-0.5-1.4-1.3-1.5c0,0,0,0,0,0
	c-0.7,0-1.3,0.6-1.3,1.3c0,0,0,0.1,0,0.1v0c0,0.7,0.5,1.3,1.2,1.4c0,0,0.1,0,0.1,0C243.2,66.6,243.8,66,243.8,65.2
	C243.8,65.3,243.8,65.3,243.8,65.2L243.8,65.2z"/>
<path class="st2" d="M250.2,72c-1.1-1.2-1.6-2.8-1.5-4.4v0c0-3.8,2-6.6,5.9-6.6c1.5,0,3,0.4,4.2,1.3l-1.7,2.6
	c-0.7-0.5-1.5-0.8-2.3-0.9c-1.3,0-2,0.9-2.1,2.4c0.7-0.7,1.7-1.1,2.7-1.1c2,0,3.7,1.5,3.7,3.5c0,0,0,0.1,0,0.1v0
	c0,2.9-2.3,4.5-5,4.5C252.7,73.5,251.3,73,250.2,72z M255.2,69.2L255.2,69.2c0-0.8-0.6-1.4-1.3-1.4c0,0,0,0-0.1,0
	c-0.7,0-1.3,0.5-1.3,1.2c0,0,0,0.1,0,0.1v0c0,0.7,0.5,1.3,1.3,1.4c0,0,0,0,0.1,0C254.6,70.5,255.2,70,255.2,69.2
	C255.2,69.2,255.2,69.2,255.2,69.2L255.2,69.2z"/>
<path class="st2" d="M259.8,69.8L259.8,69.8c0-1.4,0.9-2.5,2.2-2.9c-1-0.5-1.7-1.5-1.8-2.6v0c0-2,2-3.4,4.8-3.4s4.8,1.4,4.8,3.4v0
	c0,1.1-0.7,2.2-1.8,2.6c1.3,0.4,2.2,1.5,2.2,2.9v0c0,2.1-2.1,3.5-5.2,3.5S259.8,71.9,259.8,69.8z M266.4,69.4L266.4,69.4
	c-0.1-0.8-0.9-1.3-1.6-1.2c-0.6,0.1-1,0.6-1.1,1.1v0c0.1,0.8,0.8,1.3,1.6,1.2C265.8,70.5,266.3,70,266.4,69.4z M266.3,64.8
	L266.3,64.8c-0.1-0.7-0.7-1.2-1.4-1.2c-0.6,0.1-1.1,0.5-1.1,1.1v0c0.1,0.7,0.7,1.2,1.3,1.2C265.7,65.9,266.2,65.4,266.3,64.8z"/>
<path class="st2" d="M270.9,66.2h8v3.1h-8V66.2z"/>
<path class="st2" d="M279.8,70.2l5-3.6c0.8-0.5,1-1,1-1.5c0-0.5-0.4-0.9-1.1-0.9s-1.3,0.4-2.3,1.5l-2.6-2.2c1.2-1.7,3.2-2.7,5.3-2.6
	c2.7,0,4.7,1.6,4.7,3.9v0c0,1.8-1,2.8-2.4,3.8l-2.1,1.4h4.7v3.1h-10.1V70.2z"/>
<path class="st2" d="M290.7,67.2L290.7,67.2c0-3.4,2.2-6.3,5.8-6.3s5.8,2.9,5.8,6.2v0c0,3.3-2.2,6.3-5.8,6.3S290.7,70.5,290.7,67.2z
	 M298.3,67.2L298.3,67.2c0-1.7-0.7-2.8-1.8-2.8s-1.8,1.1-1.8,2.7v0c0,1.6,0.7,2.8,1.8,2.8S298.3,68.8,298.3,67.2L298.3,67.2z"/>
<path class="st2" d="M304.9,64.6l-2,0.4l-0.7-3l3.6-1h3v12.1h-3.9V64.6z"/>
<path class="st2" d="M309.8,69.8L309.8,69.8c0-1.4,0.9-2.5,2.2-2.9c-1-0.5-1.7-1.5-1.8-2.6v0c0-2,2-3.4,4.8-3.4s4.8,1.4,4.8,3.4v0
	c0,1.1-0.7,2.2-1.8,2.6c1.3,0.4,2.2,1.5,2.2,2.9v0c0,2.1-2.1,3.5-5.2,3.5S309.8,71.9,309.8,69.8z M316.4,69.4L316.4,69.4
	c-0.1-0.8-0.9-1.3-1.6-1.2c-0.6,0.1-1,0.6-1.1,1.1v0c0.1,0.8,0.8,1.3,1.6,1.2C315.8,70.5,316.3,70,316.4,69.4z M316.3,64.8
	L316.3,64.8c-0.1-0.7-0.7-1.2-1.4-1.2c-0.6,0.1-1.1,0.5-1.1,1.1v0c0.1,0.7,0.7,1.2,1.3,1.2C315.7,65.9,316.2,65.4,316.3,64.8z"/>
<g>
	<path class="st0" d="M103.5,111.2h1.7l10,12.7v-12.7h1.7V127h-1.4l-10.3-13v13h-1.7V111.2z"/>
	<path class="st0" d="M120.7,119.2L120.7,119.2c-0.1-4.5,3.4-8.1,7.8-8.3c0.1,0,0.2,0,0.2,0c2.3-0.1,4.6,0.8,6.2,2.5l-1.2,1.3
		c-1.3-1.4-3.1-2.2-5-2.2c-3.4,0-6.2,2.9-6.2,6.3c0,0.1,0,0.1,0,0.2v0c-0.2,3.5,2.5,6.4,6,6.5c0.1,0,0.1,0,0.2,0
		c2,0,3.8-0.8,5.1-2.3l1.2,1.2c-1.6,1.8-3.9,2.8-6.4,2.8c-4.4,0-7.9-3.5-8-7.9C120.7,119.3,120.7,119.3,120.7,119.2z"/>
	<path class="st0" d="M138.2,111.2h1.8v14.2h8.9v1.7h-10.7L138.2,111.2z"/>
	<path class="st0" d="M152.2,111.2h6.8c1.7-0.1,3.3,0.5,4.5,1.6c0.8,0.8,1.2,2,1.2,3.1v0c0,2.6-1.8,4.2-4.3,4.6l4.9,6.5h-2.2
		l-4.6-6.2H154v6.2h-1.8V111.2z M158.9,119.3c2.4,0,4.1-1.2,4.1-3.3v0c0-2-1.5-3.1-4.1-3.1H154v6.4L158.9,119.3z"/>
	<path class="st0" d="M175.2,110.8h2v1.9h-2V110.8z M175.3,115.3h1.7v11.7h-1.7V115.3z"/>
	<path class="st0" d="M180.1,125.6l0.9-1.2c1.2,0.9,2.6,1.4,4.1,1.5c1.4,0,2.4-0.7,2.4-1.9v0c0-1.2-1.4-1.6-2.9-2.1
		c-1.8-0.5-3.9-1.2-3.9-3.3v0c0-2,1.7-3.4,4-3.4c1.5,0,3,0.5,4.2,1.3l-0.8,1.3c-1-0.7-2.2-1.1-3.5-1.1c-1.4,0-2.3,0.7-2.3,1.7v0
		c0,1.1,1.5,1.5,3,2c1.8,0.5,3.8,1.2,3.8,3.4v0c0,2.2-1.8,3.5-4.2,3.5C183.2,127.2,181.5,126.6,180.1,125.6z"/>
	<path class="st0" d="M199.2,115.3h1.7v2c0.8-1.5,2.4-2.3,4-2.3c2.4-0.1,4.4,1.7,4.5,4.1c0,0.2,0,0.4,0,0.6v7.3h-1.7v-6.9
		c0-2.2-1.2-3.5-3.2-3.5c-1.9,0-3.5,1.5-3.5,3.4c0,0.1,0,0.2,0,0.3v6.7h-1.7L199.2,115.3z"/>
	<path class="st0" d="M212.4,121.2L212.4,121.2c0-3.4,2.8-6.1,6.2-6.1c3.3,0,6,2.7,6.1,6v0c0,3.4-2.7,6.1-6.1,6.1c0,0-0.1,0-0.1,0
		c-3.3,0-6-2.6-6.1-5.9C212.4,121.3,212.4,121.3,212.4,121.2z M222.9,121.2L222.9,121.2c0.1-2.5-1.8-4.5-4.3-4.6c0,0,0,0-0.1,0
		c-2.4,0-4.3,2-4.3,4.4c0,0.1,0,0.1,0,0.2v0c-0.1,2.4,1.8,4.5,4.2,4.6c0,0,0.1,0,0.1,0c2.4,0,4.3-2,4.3-4.3
		C222.9,121.4,222.9,121.3,222.9,121.2L222.9,121.2z"/>
	<path class="st0" d="M226.2,115.3h1.9l3.1,9.4l3.2-9.5h1.5l3.2,9.5l3.1-9.4h1.8l-4.1,11.8h-1.5l-3.2-9.3l-3.2,9.3h-1.5L226.2,115.3
		z"/>
	<path class="st0" d="M253.4,120.3v-9.1h2.8v9c0,3,1.5,4.5,4,4.5c2.5,0,4-1.5,4-4.4v-9.1h2.8v9c0,4.7-2.7,7.1-6.8,7.1
		C256.1,127.3,253.4,124.9,253.4,120.3z"/>
	<path class="st0" d="M270.5,115.1h2.7v1.8c0.8-1.3,2.2-2.1,3.7-2.1c2.7,0,4.3,1.8,4.3,4.6v7.6h-2.7v-6.8c0-1.9-0.9-2.9-2.6-2.9
		c-1.5,0-2.7,1.1-2.7,2.6c0,0.1,0,0.2,0,0.4v6.8h-2.7L270.5,115.1z"/>
	<path class="st0" d="M284.6,110.6h3v2.6h-3V110.6z M284.8,115.1h2.7v12h-2.7V115.1z"/>
	<path class="st0" d="M290.5,121.1L290.5,121.1c0-4,2.7-6.3,5.6-6.3c1.6,0,3.2,0.8,4.1,2.1v-6.4h2.7v16.6h-2.7v-2
		c-0.9,1.4-2.4,2.3-4.1,2.2C293.2,127.3,290.5,125.1,290.5,121.1z M300.2,121.1L300.2,121.1c0.1-2-1.4-3.7-3.3-3.9c0,0-0.1,0-0.1,0
		c-1.9,0-3.5,1.6-3.5,3.6c0,0.1,0,0.2,0,0.3v0c-0.2,2,1.3,3.7,3.3,3.8c0.1,0,0.1,0,0.2,0C298.7,124.8,300.2,123.2,300.2,121.1
		C300.2,121.1,300.2,121.1,300.2,121.1z"/>
	<path class="st0" d="M305.6,121.1L305.6,121.1c0.1-3.6,3-6.4,6.5-6.3c3.4,0.1,6.2,2.8,6.3,6.2v0c0,3.5-2.8,6.3-6.3,6.2
		c0,0-0.1,0-0.1,0c-3.4,0.1-6.3-2.6-6.3-6C305.6,121.2,305.6,121.2,305.6,121.1z M315.7,121.1L315.7,121.1c0.1-2.1-1.5-3.8-3.5-3.9
		c0,0-0.1,0-0.1,0c-2,0-3.6,1.6-3.6,3.6c0,0.1,0,0.2,0,0.2v0c-0.1,2,1.5,3.8,3.5,3.8c0,0,0.1,0,0.1,0c2,0,3.6-1.6,3.6-3.6
		C315.7,121.3,315.7,121.2,315.7,121.1z"/>
	<path class="st0" d="M320.2,125.5l1.2-1.9c1.1,0.9,2.5,1.4,3.9,1.5c1.2,0,1.9-0.5,1.9-1.3v0c0-0.9-1.3-1.2-2.7-1.7
		c-1.8-0.5-3.7-1.2-3.7-3.5v0c0-2.3,1.9-3.7,4.3-3.7c1.6,0,3.1,0.5,4.4,1.4l-1.1,2c-1-0.7-2.2-1.1-3.4-1.1c-1.1,0-1.7,0.5-1.7,1.2v0
		c0,0.9,1.3,1.2,2.7,1.7c1.7,0.5,3.7,1.3,3.7,3.5v0c0,2.5-2,3.8-4.4,3.8C323.5,127.3,321.7,126.6,320.2,125.5z"/>
	<path class="st0" d="M332.6,120.3v-9.1h2.8v9c0,3,1.5,4.5,4,4.5c2.5,0,4-1.5,4-4.4v-9.1h2.8v9c0,4.7-2.7,7.1-6.8,7.1
		C335.3,127.3,332.6,124.9,332.6,120.3z"/>
	<path class="st0" d="M349,124.7l1.7-2c1.3,1.3,3.1,2,5,2.1c1.7,0,2.8-0.8,2.8-2v0c0-1.1-0.6-1.7-3.6-2.4c-3.4-0.8-5.3-1.8-5.3-4.7
		v0c0-2.7,2.3-4.6,5.4-4.6c2.1,0,4.1,0.7,5.8,2l-1.5,2.1c-1.2-1-2.7-1.6-4.3-1.6c-1.6,0-2.6,0.8-2.6,1.9v0c0,1.2,0.7,1.8,3.8,2.5
		c3.4,0.8,5.1,2,5.1,4.7v0c0,3-2.3,4.7-5.7,4.7C353.2,127.3,350.8,126.4,349,124.7z"/>
</g>
</svg>
